<svg width="101" height="100" viewBox="0 0 101 100" fill="none" xmlns="http://www.w3.org/2000/svg">
<path opacity="0.2" d="M77.2825 49.0347C77.2825 64.9802 64.3082 77.9544 48.3627 77.9544C32.4367 77.9544 19.4777 64.9802 19.4777 49.0347C19.4777 33.0892 32.4367 20.115 48.3627 20.115C64.3082 20.115 77.2825 33.0892 77.2825 49.0347Z" fill="url(#paint0_linear_0_6135)"/>
<path d="M49.7979 25.3712C50.3287 25.5347 50.5545 25.6969 50.7389 25.8604C50.8788 26.0239 50.9925 26.1861 50.8151 26.3496C50.6349 26.5131 50.1901 26.6753 50.1069 26.8388C50.0085 27.0023 50.1582 27.1645 50.4187 27.328C50.6904 27.4915 50.8941 27.6537 50.9703 27.8172C51.0756 27.9808 51.1851 28.1429 51.1408 28.3064C51.0188 28.6321 50.6862 28.9578 49.7993 29.2848H49.5221C48.6352 28.9592 48.3026 28.6335 48.1806 28.3064C48.1349 28.1429 48.2444 27.9808 48.3511 27.8172C48.4259 27.6537 48.631 27.4915 48.9026 27.328C49.1632 27.1645 49.3128 27.0023 49.2144 26.8388C49.1313 26.6753 48.685 26.5131 48.5049 26.3496C48.3289 26.1861 48.4411 26.0239 48.5811 25.8604C48.7654 25.6969 48.9899 25.5347 49.5221 25.3712H49.7979Z" fill="white"/>
<path d="M36.7039 29.2269C37.2457 29.1022 37.5229 29.1299 37.7627 29.1798C37.9664 29.2505 38.1452 29.335 38.0731 29.5651C37.9983 29.7965 37.6948 30.1596 37.7045 30.3425C37.7003 30.5338 37.9123 30.5989 38.2186 30.61C38.536 30.6156 38.7937 30.6544 38.9406 30.7583C39.1139 30.847 39.2899 30.9329 39.3328 31.0964C39.3896 31.4401 39.2649 31.8878 38.6607 32.6139L38.4209 32.7525C37.4896 32.9133 37.0392 32.7983 36.7704 32.5765C36.6498 32.4573 36.6623 32.2619 36.6734 32.0679C36.6568 31.8891 36.7524 31.6452 36.9062 31.3695C37.0503 31.0978 37.0988 30.8816 36.9312 30.7902C36.7773 30.6904 36.3103 30.7722 36.0733 30.7209C35.8391 30.6682 35.8544 30.47 35.8945 30.2594C35.9722 30.0266 36.0858 29.773 36.4641 29.3655L36.7039 29.2269Z" fill="white"/>
<path d="M27.9478 38.7325C28.3552 38.3542 28.6088 38.2405 28.8417 38.1629C29.0537 38.1227 29.2505 38.1061 29.3032 38.3417C29.3544 38.5787 29.2727 39.0457 29.3724 39.1995C29.4639 39.3672 29.6801 39.3173 29.9517 39.1746C30.2289 39.0207 30.4714 38.9251 30.6502 38.9418C30.8442 38.9321 31.0396 38.9182 31.1588 39.0388C31.3791 39.3076 31.4955 39.758 31.3348 40.6893L31.1962 40.929C30.47 41.5347 30.0224 41.658 29.6787 41.6012C29.5152 41.5582 29.4279 41.3822 29.3406 41.209C29.2366 41.0621 29.1978 40.8043 29.1923 40.487C29.1812 40.1807 29.1161 39.9687 28.9248 39.9728C28.7419 39.9631 28.3774 40.268 28.1474 40.3415C27.9173 40.4135 27.8328 40.2334 27.7621 40.031C27.7122 39.7899 27.6845 39.5141 27.8092 38.9722L27.9478 38.7325Z" fill="white"/>
<path d="M25.1194 51.342C25.2829 50.8112 25.4451 50.5853 25.6086 50.401C25.7721 50.2611 25.9343 50.1474 26.0978 50.3248C26.2613 50.505 26.4235 50.9498 26.587 51.033C26.7505 51.1314 26.9127 50.9817 27.0762 50.7212C27.2397 50.4495 27.4019 50.2458 27.5654 50.1696C27.7289 50.0643 27.8911 49.9548 28.0546 49.9991C28.3803 50.1211 28.7073 50.4537 29.033 51.3406V51.6178C28.7073 52.5047 28.3803 52.8373 28.0546 52.9593C27.8911 53.005 27.7289 52.8955 27.5654 52.7888C27.4019 52.714 27.2397 52.5089 27.0762 52.2373C26.9127 51.9767 26.7505 51.8271 26.587 51.9255C26.4235 52.0086 26.2613 52.4548 26.0978 52.635C25.9343 52.811 25.7721 52.6987 25.6086 52.5588C25.4451 52.3745 25.2829 52.15 25.1194 51.6178V51.342Z" fill="white"/>
<path d="M28.9749 63.6775C28.8502 63.1357 28.8793 62.8585 28.9278 62.6187C28.9985 62.415 29.083 62.2362 29.3131 62.3083C29.5445 62.3831 29.9076 62.6866 30.0905 62.6783C30.2818 62.6825 30.3469 62.4705 30.358 62.1642C30.3635 61.8468 30.4023 61.5891 30.5063 61.4422C30.595 61.2689 30.6809 61.0929 30.8444 61.05C31.1881 60.9931 31.6357 61.1179 32.3619 61.7235L32.5005 61.9632C32.6613 62.8945 32.5449 63.3449 32.3245 63.6138C32.2053 63.7343 32.0099 63.7205 31.8159 63.7108C31.6371 63.7274 31.3946 63.6318 31.1174 63.478C30.8458 63.3338 30.6296 63.2853 30.5382 63.453C30.4384 63.6068 30.5201 64.0739 30.4689 64.3109C30.4162 64.5451 30.218 64.5298 30.0074 64.4882C29.7746 64.4106 29.5209 64.297 29.1135 63.9187L28.9749 63.6775Z" fill="white"/>
<path d="M38.4792 72.4317C38.1009 72.0242 37.9872 71.7706 37.9096 71.5378C37.8694 71.3258 37.8528 71.129 38.0884 71.0763C38.3254 71.025 38.7924 71.1068 38.9462 71.007C39.1139 70.9156 39.064 70.6994 38.9213 70.4278C38.7675 70.1506 38.6718 69.9081 38.6885 69.7279C38.6788 69.5339 38.6649 69.3385 38.7855 69.2193C39.0543 68.9976 39.5047 68.8812 40.436 69.0433L40.6758 69.1819C41.2814 69.9081 41.4047 70.3557 41.3479 70.6994C41.3049 70.8629 41.1289 70.9502 40.9557 71.0375C40.8088 71.1415 40.551 71.1803 40.2337 71.1858C39.9274 71.1969 39.7154 71.2634 39.7195 71.4533C39.7098 71.6362 40.0147 72.0007 40.0895 72.2307C40.1616 72.4608 39.9814 72.5453 39.7791 72.616C39.538 72.6659 39.2622 72.6936 38.7203 72.5689L38.4792 72.4317Z" fill="white"/>
<path d="M49.7979 71.348C50.3287 71.5116 50.5545 71.6737 50.7389 71.8372C50.8788 72.0008 50.9925 72.1629 50.8151 72.3264C50.6349 72.49 50.1901 72.6521 50.1069 72.8156C50.0085 72.9792 50.1582 73.1413 50.4187 73.3048C50.6904 73.4684 50.8941 73.6305 50.9703 73.794C51.0756 73.9576 51.1851 74.1197 51.1408 74.2832C51.0188 74.6089 50.6862 74.9346 49.7993 75.2616H49.5221C48.6352 74.936 48.3026 74.6103 48.1806 74.2832C48.1349 74.1197 48.2444 73.9576 48.3511 73.794C48.4259 73.6305 48.631 73.4684 48.9026 73.3048C49.1632 73.1413 49.3128 72.9792 49.2144 72.8156C49.1313 72.6521 48.685 72.49 48.5049 72.3264C48.3289 72.1629 48.4411 72.0008 48.5811 71.8372C48.7654 71.6737 48.9899 71.5116 49.5221 71.348H49.7979Z" fill="white"/>
<path d="M59.6927 69.0435C60.2346 68.9188 60.5117 68.9479 60.7515 68.9964C60.9552 69.0671 61.134 69.1516 61.0619 69.3817C60.9871 69.6131 60.6836 69.9762 60.6919 70.1591C60.6877 70.3504 60.8998 70.4155 61.206 70.4266C61.5234 70.4321 61.7812 70.4709 61.9281 70.5749C62.1013 70.6636 62.2773 70.7495 62.3202 70.913C62.3771 71.2567 62.2523 71.7043 61.6481 72.4305L61.4084 72.5691C60.4771 72.7299 60.0267 72.6135 59.7578 72.3931C59.6373 72.2739 59.6497 72.0785 59.6608 71.8845C59.6442 71.7057 59.7398 71.4618 59.8936 71.1847C60.0378 70.913 60.0863 70.6968 59.9186 70.6054C59.7648 70.5056 59.2977 70.5874 59.0607 70.5361C58.8265 70.4834 58.8418 70.2852 58.882 70.0746C58.9596 69.8418 59.0732 69.5882 59.4516 69.1807L59.6927 69.0435Z" fill="white"/>
<path d="M67.7659 61.7219C68.1734 61.3436 68.427 61.2286 68.6598 61.1523C68.8718 61.1122 69.0686 61.0955 69.1213 61.3297C69.1725 61.5667 69.0908 62.0337 69.1906 62.1876C69.282 62.3552 69.4982 62.3054 69.7698 62.1626C70.047 62.0088 70.2895 61.9132 70.4683 61.9298C70.6623 61.9201 70.8577 61.9062 70.9769 62.0268C71.1973 62.2957 71.3137 62.7461 71.1529 63.6773L71.0143 63.9171C70.2881 64.5227 69.8405 64.6474 69.4968 64.5906C69.3333 64.5476 69.246 64.3716 69.1587 64.1984C69.0547 64.0515 69.0159 63.7937 69.0104 63.4764C68.9993 63.1701 68.9328 62.9581 68.7429 62.9622C68.56 62.9525 68.1955 63.2574 67.9655 63.3323C67.7354 63.4043 67.6509 63.2242 67.5802 63.0218C67.5303 62.7807 67.5026 62.5049 67.6273 61.9631L67.7659 61.7219Z" fill="white"/>
<path d="M71.0961 51.342C71.2596 50.8112 71.4217 50.5853 71.5853 50.401C71.7488 50.2611 71.9109 50.1474 72.0745 50.3248C72.238 50.505 72.4001 50.9498 72.5637 51.033C72.7272 51.1314 72.8894 50.9817 73.0529 50.7212C73.2164 50.4495 73.3785 50.2458 73.5421 50.1696C73.7056 50.0643 73.8677 49.9548 74.0313 49.9991C74.357 50.1211 74.684 50.4537 75.0097 51.3406V51.6178C74.684 52.5047 74.357 52.8373 74.0313 52.9593C73.8677 53.005 73.7056 52.8955 73.5421 52.7888C73.3785 52.714 73.2164 52.5089 73.0529 52.2373C72.8894 51.9767 72.7272 51.8271 72.5637 51.9255C72.4001 52.0086 72.238 52.4548 72.0745 52.635C71.9109 52.811 71.7488 52.6987 71.5853 52.5588C71.4217 52.3745 71.2596 52.15 71.0961 51.6178V51.342Z" fill="white"/>
<path d="M68.793 40.689C68.6683 40.1472 68.6974 39.87 68.7459 39.6303C68.8166 39.4265 68.9011 39.2478 69.1312 39.3198C69.3626 39.3947 69.7257 39.6982 69.9086 39.6885C70.0999 39.6926 70.165 39.4806 70.1761 39.1743C70.1817 38.857 70.2205 38.5992 70.3244 38.4523C70.4131 38.2791 70.499 38.1031 70.6625 38.0601C71.0062 38.0033 71.4539 38.128 72.18 38.7322L72.3186 38.972C72.4794 39.9033 72.363 40.3537 72.1426 40.6225C72.0234 40.7431 71.828 40.7306 71.634 40.7195C71.4552 40.7362 71.2113 40.6405 70.9356 40.4867C70.6639 40.3426 70.4477 40.2941 70.3563 40.4618C70.2565 40.6156 70.3383 41.0826 70.287 41.3196C70.2343 41.5538 70.0361 41.5386 69.8255 41.4984C69.5927 41.4208 69.3391 41.3071 68.9316 40.9288L68.793 40.689Z" fill="white"/>
<path d="M61.4685 32.6137C61.0901 32.2063 60.9765 31.9527 60.8989 31.7198C60.8587 31.5078 60.8421 31.311 61.0776 31.2584C61.3146 31.2071 61.7817 31.2888 61.9355 31.1891C62.1032 31.0976 62.0533 30.8814 61.9105 30.6098C61.7567 30.3326 61.6611 30.0901 61.6777 29.9113C61.668 29.7173 61.6542 29.5219 61.7747 29.4027C62.0436 29.1824 62.494 29.066 63.4253 29.2267L63.665 29.3653C64.2706 30.0915 64.394 30.5391 64.3371 30.8828C64.2942 31.0463 64.1182 31.1336 63.945 31.2209C63.7981 31.3249 63.5403 31.3637 63.2229 31.3692C62.9167 31.3803 62.7046 31.4454 62.7088 31.6367C62.6991 31.8196 63.004 32.1841 63.0774 32.4141C63.1495 32.6442 62.9693 32.7287 62.767 32.7994C62.5259 32.8493 62.2501 32.877 61.7082 32.7523L61.4685 32.6137Z" fill="white"/>
<path d="M49.7985 32.6831C50.411 34.1507 50.6716 35.6197 50.8268 37.0887C50.9848 38.5577 50.9779 40.0267 50.5774 41.4971C50.1921 42.9674 49.9981 44.4378 50.1838 45.9068C50.321 47.3758 50.7977 48.8434 50.9266 50.3124L50.9792 50.9138L50.4637 51.2686C50.3681 51.3351 50.4693 51.4987 50.5801 50.9887C50.6162 50.724 50.4512 50.4025 50.3321 50.3027C50.2129 50.1849 50.1533 50.1627 50.1173 50.1392C49.926 50.1017 50.3113 50.0934 50.5524 50.0754L51.3215 50.0255C52.3471 49.9632 53.3726 49.9909 54.3981 50.0837C56.4492 50.2777 58.4988 50.5951 60.5499 51.3435V51.6206C58.4988 52.3704 56.4492 52.6863 54.3981 52.8804C53.3726 52.9732 52.3471 53.0009 51.3215 52.9386L50.5524 52.8887C50.2822 52.8499 50.1477 52.9122 49.4548 52.7556C49.1721 52.6697 48.87 52.5408 48.5596 52.2512C48.2491 51.9823 47.9623 51.4072 48.0135 50.8861C48.1632 49.8523 48.6746 49.6167 48.9628 49.3672L48.5014 50.3235C48.6205 48.8531 49.089 47.3827 49.2165 45.9123C49.3938 44.442 49.1887 42.973 48.7952 41.5054C48.385 40.0378 48.3697 38.5674 48.518 37.0984C48.6649 35.628 48.9157 34.1576 49.5186 32.6873L49.7985 32.6831Z" fill="url(#paint1_linear_0_6135)"/>
<path d="M81.286 50.3165C81.268 58.4639 78.366 66.7346 72.6466 72.9085C67.0285 79.1434 58.5152 82.7854 50.0588 82.572C45.839 82.4583 41.6662 81.4827 37.869 79.7573C34.0704 78.025 30.6529 75.5638 27.769 72.6147C21.9983 66.7207 18.4478 58.6759 18.2205 50.3165C17.917 41.971 21.1945 33.4564 27.1647 27.4141C30.1277 24.3833 33.6948 21.9304 37.6112 20.2549C41.5248 18.5683 45.8029 17.741 50.0602 17.7368C54.3161 17.7923 58.5804 18.6404 62.4649 20.3616C66.3632 22.0482 69.8528 24.6009 72.6771 27.6955C78.3785 33.8929 81.2985 42.1636 81.286 50.3165ZM81.0088 50.3165C80.9742 46.2657 80.1219 42.2177 78.4173 38.5702C76.7238 34.9226 74.3152 31.6451 71.3869 28.9843C65.5193 23.6835 57.8348 20.6221 50.0588 20.6928C42.3051 20.7025 34.5901 23.7749 29.0093 29.2573C23.4188 34.7092 19.9875 42.3563 19.738 50.3165C19.6507 54.2828 20.2813 58.3115 21.7863 62.031C23.2636 65.7576 25.5447 69.1681 28.4065 71.98C34.1605 77.6328 42.2427 80.5057 50.0602 80.2646C57.911 80.1024 65.5553 77.0148 71.4188 71.6779C74.3388 69.0018 76.7474 65.7215 78.4408 62.0712C80.1413 58.4195 80.9866 54.366 81.0088 50.3165Z" fill="white"/>
<path d="M77.6734 19.2677C78.4287 19.2053 78.9775 19.3494 79.4806 19.5393C79.9712 19.7416 80.3841 20.0216 80.732 20.3666C81.0798 20.7117 81.3598 21.1247 81.5621 21.6153C81.7534 22.1169 81.8947 22.6685 81.831 23.4252C81.0743 23.4889 80.5227 23.3476 80.0211 23.1563C79.5305 22.954 79.1175 22.6741 78.7724 22.3262C78.4273 21.9784 78.1474 21.5654 77.9451 21.0748C77.7552 20.5717 77.6125 20.0229 77.6734 19.2677Z" fill="url(#paint2_linear_0_6135)"/>
<path d="M84.7403 23.4255C84.678 22.6702 84.8221 22.1214 85.0119 21.6183C85.2143 21.1277 85.4942 20.7148 85.8393 20.3669C86.1844 20.0191 86.5974 19.7391 87.0879 19.5368C87.5896 19.3456 88.1412 19.2042 88.8979 19.2679C88.9616 20.0246 88.8202 20.5762 88.629 21.0778C88.4267 21.5684 88.1467 21.9814 87.7989 22.3265C87.451 22.6716 87.038 22.9515 86.5475 23.1538C86.0458 23.3437 85.4956 23.4878 84.7403 23.4255Z" fill="url(#paint3_linear_0_6135)"/>
<path d="M81.8293 26.3355C81.8917 27.0908 81.7475 27.6396 81.5577 28.1427C81.3553 28.6333 81.0754 29.0462 80.7303 29.3941C80.3852 29.7419 79.9723 30.0219 79.4817 30.2242C78.98 30.4155 78.4284 30.5568 77.6718 30.4931C77.608 29.7364 77.7494 29.1848 77.9406 28.6832C78.1429 28.1926 78.4229 27.7796 78.7707 27.4345C79.1186 27.0894 79.5316 26.8095 80.0221 26.6072C80.5252 26.4173 81.0754 26.2732 81.8293 26.3355Z" fill="url(#paint4_linear_0_6135)"/>
<path d="M88.8986 30.4928C88.1433 30.5552 87.5945 30.4111 87.0915 30.2212C86.6009 30.0189 86.1879 29.7389 85.8401 29.3939C85.4922 29.0488 85.2123 28.6358 85.0099 28.1452C84.8187 27.6436 84.6773 27.092 84.7411 26.3353C85.4978 26.2716 86.0493 26.4129 86.551 26.6042C87.0416 26.8065 87.4546 27.0865 87.7996 27.4343C88.1447 27.7821 88.4246 28.1951 88.627 28.6857C88.8182 29.1888 88.961 29.7376 88.8986 30.4928Z" fill="url(#paint5_linear_0_6135)"/>
<path d="M17.6688 75.2629C18.1797 75.2207 18.5509 75.3182 18.8911 75.4466C19.2229 75.5835 19.5023 75.7728 19.7375 76.0062C19.9728 76.2396 20.1621 76.5189 20.299 76.8507C20.4283 77.1901 20.5239 77.5631 20.4808 78.0749C19.969 78.118 19.596 78.0224 19.2567 77.8931C18.9249 77.7562 18.6455 77.5669 18.4121 77.3316C18.1787 77.0963 17.9894 76.817 17.8525 76.4852C17.7241 76.1449 17.6276 75.7737 17.6688 75.2629Z" fill="url(#paint6_linear_0_6135)"/>
<path d="M22.4475 78.0749C22.4053 77.5641 22.5028 77.1929 22.6312 76.8526C22.768 76.5208 22.9574 76.2415 23.1908 76.0062C23.4242 75.771 23.7035 75.5816 24.0353 75.4448C24.3746 75.3154 24.7477 75.2198 25.2595 75.2629C25.3026 75.7747 25.207 76.1478 25.0776 76.4871C24.9408 76.8189 24.7514 77.0982 24.5162 77.3316C24.2809 77.565 24.0016 77.7544 23.6698 77.8912C23.3304 78.0196 22.9583 78.1171 22.4475 78.0749Z" fill="url(#paint7_linear_0_6135)"/>
<path d="M20.4788 80.0432C20.5209 80.554 20.4234 80.9252 20.295 81.2655C20.1582 81.5973 19.9688 81.8766 19.7354 82.1119C19.502 82.3471 19.2227 82.5365 18.8909 82.6733C18.5516 82.8027 18.1785 82.8983 17.6667 82.8552C17.6236 82.3434 17.7192 81.9703 17.8486 81.631C17.9854 81.2992 18.1748 81.0199 18.41 80.7865C18.6453 80.5531 18.9246 80.3637 19.2565 80.2269C19.5967 80.0985 19.9688 80.001 20.4788 80.0432Z" fill="url(#paint8_linear_0_6135)"/>
<path d="M25.26 82.8552C24.7491 82.8974 24.378 82.7999 24.0377 82.6715C23.7059 82.5346 23.4266 82.3453 23.1913 82.1119C22.956 81.8785 22.7667 81.5992 22.6298 81.2674C22.5005 80.928 22.4049 80.555 22.448 80.0432C22.9598 80.0001 23.3328 80.0957 23.6721 80.225C24.004 80.3619 24.2833 80.5512 24.5167 80.7865C24.7501 81.0218 24.9394 81.3011 25.0763 81.6329C25.2056 81.9732 25.3022 82.3444 25.26 82.8552Z" fill="url(#paint9_linear_0_6135)"/>
<defs>
<linearGradient id="paint0_linear_0_6135" x1="19.4768" y1="49.0346" x2="77.2819" y2="49.0346" gradientUnits="userSpaceOnUse">
<stop offset="1.58946e-07" stop-color="#FC8C5F"/>
<stop offset="1" stop-color="#FA7846"/>
</linearGradient>
<linearGradient id="paint1_linear_0_6135" x1="47.9106" y1="42.8268" x2="60.551" y2="42.8268" gradientUnits="userSpaceOnUse">
<stop offset="1.58946e-07" stop-color="#FC8C5F"/>
<stop offset="1" stop-color="#FA7846"/>
</linearGradient>
<linearGradient id="paint2_linear_0_6135" x1="76.288" y1="21.347" x2="83.2172" y2="21.347" gradientUnits="userSpaceOnUse">
<stop offset="1.58946e-07" stop-color="#FC8C5F"/>
<stop offset="1" stop-color="#FA7846"/>
</linearGradient>
<linearGradient id="paint3_linear_0_6135" x1="83.3549" y1="21.3461" x2="90.2841" y2="21.3461" gradientUnits="userSpaceOnUse">
<stop offset="1.58946e-07" stop-color="#FC8C5F"/>
<stop offset="1" stop-color="#FA7846"/>
</linearGradient>
<linearGradient id="paint4_linear_0_6135" x1="76.2863" y1="28.4149" x2="83.2156" y2="28.4149" gradientUnits="userSpaceOnUse">
<stop offset="1.58946e-07" stop-color="#FC8C5F"/>
<stop offset="1" stop-color="#FA7846"/>
</linearGradient>
<linearGradient id="paint5_linear_0_6135" x1="83.3557" y1="28.4135" x2="90.2849" y2="28.4135" gradientUnits="userSpaceOnUse">
<stop offset="1.58946e-07" stop-color="#FC8C5F"/>
<stop offset="1" stop-color="#FA7846"/>
</linearGradient>
<linearGradient id="paint6_linear_0_6135" x1="16.7318" y1="76.6693" x2="21.4184" y2="76.6693" gradientUnits="userSpaceOnUse">
<stop offset="1.58946e-07" stop-color="#FC8C5F"/>
<stop offset="1" stop-color="#FA7846"/>
</linearGradient>
<linearGradient id="paint7_linear_0_6135" x1="21.5104" y1="76.6686" x2="26.1971" y2="76.6686" gradientUnits="userSpaceOnUse">
<stop offset="1.58946e-07" stop-color="#FC8C5F"/>
<stop offset="1" stop-color="#FA7846"/>
</linearGradient>
<linearGradient id="paint8_linear_0_6135" x1="16.7297" y1="81.4495" x2="21.4164" y2="81.4495" gradientUnits="userSpaceOnUse">
<stop offset="1.58946e-07" stop-color="#FC8C5F"/>
<stop offset="1" stop-color="#FA7846"/>
</linearGradient>
<linearGradient id="paint9_linear_0_6135" x1="21.5109" y1="81.4488" x2="26.1976" y2="81.4488" gradientUnits="userSpaceOnUse">
<stop offset="1.58946e-07" stop-color="#FC8C5F"/>
<stop offset="1" stop-color="#FA7846"/>
</linearGradient>
</defs>
</svg>
