<svg width="12" height="7" viewBox="0 0 12 7" fill="none" xmlns="http://www.w3.org/2000/svg">
<path d="M10.4095 0.793527C10.3426 0.726563 10.2656 0.69308 10.1785 0.69308C10.0914 0.69308 10.0144 0.726563 9.94747 0.793527L5.99993 4.74107L2.05239 0.793527C1.98542 0.726563 1.90841 0.69308 1.82136 0.69308C1.7343 0.69308 1.65729 0.726563 1.59033 0.793527L1.0881 1.29576C1.02114 1.36272 0.987653 1.43973 0.987653 1.52679C0.987653 1.61384 1.02114 1.69085 1.0881 1.75781L5.7689 6.43862C5.83587 6.50558 5.91288 6.53906 5.99993 6.53906C6.08698 6.53906 6.16399 6.50558 6.23096 6.43862L10.9118 1.75781C10.9787 1.69085 11.0122 1.61384 11.0122 1.52679C11.0122 1.43973 10.9787 1.36272 10.9118 1.29576L10.4095 0.793527Z" fill="#1E2533"/>
</svg>
