<svg width="16" height="20" viewBox="0 0 16 20" fill="none" xmlns="http://www.w3.org/2000/svg">
<path d="M6.10261 8.49886C6.40146 9.19621 6.79995 9.89354 7.19843 10.4913C7.59688 11.1886 8.09506 11.7864 8.49352 12.3841C8.79237 12.7825 9.39006 12.8821 9.78852 12.5833L10.0874 12.2845C10.3863 12.0852 10.7848 12.1848 10.984 12.3841L14.1719 15.2731C14.4708 15.572 14.4708 15.9704 14.1719 16.2693L14.0723 16.3689L11.7809 18.2617C11.3825 18.4609 10.8844 18.5605 10.3863 18.4609C9.68891 18.2617 8.9916 17.9628 8.39391 17.4648C6.89957 16.3689 5.40526 14.6753 4.11018 12.6829C2.81511 10.6905 2.01815 8.49886 1.71928 6.70567C1.42042 5.01213 1.71928 3.71705 2.41663 3.21895L4.80753 1.625C4.90715 1.625 4.90715 1.52539 5.00678 1.52539C5.40526 1.42576 5.80374 1.625 5.90337 2.0235L7.19843 6.10795C7.29806 6.40682 7.19843 6.8053 6.89957 6.90493L6.50109 7.20378C6.10261 7.50265 5.90337 8.00075 6.10261 8.49886Z" stroke="#E3AC9C" stroke-width="1.5" stroke-miterlimit="10" stroke-linecap="round" stroke-linejoin="round"/>
</svg>
