<svg width="23" height="18" viewBox="0 0 23 18" fill="none" xmlns="http://www.w3.org/2000/svg">
<path d="M8.74666 9.01152L11.3113 6.64115C11.4139 6.54586 11.5009 6.52215 11.6247 6.52263C11.7494 6.525 11.8714 6.57904 11.938 6.64115L14.5027 9.01152M11.6247 0.83374C13.2346 0.83374 14.8487 1.45217 16.0765 2.70041C17.0291 3.66894 17.3637 5.11795 17.5773 6.37448C20.0151 6.77697 22.1165 8.6754 22.1165 11.2634C22.1165 14.1377 19.8146 16.4782 16.9872 16.4782H5.56275C3.11676 16.4782 1.13287 14.4612 1.13287 11.9745C1.13287 9.55338 3.24989 7.83297 5.60658 7.73009C5.5385 6.00518 5.88776 4.01478 7.18035 2.70041C8.40719 1.45312 10.0148 0.83374 11.6247 0.83374ZM11.6107 13.1597V6.52263V13.1597Z" stroke="#FC8C5F" stroke-width="1.5" stroke-miterlimit="10" stroke-linecap="round" stroke-linejoin="round"/>
</svg>
