<svg width="17" height="16" viewBox="0 0 17 16" fill="none" xmlns="http://www.w3.org/2000/svg">
<path d="M14.1699 2.44531C12.7285 0.96875 10.7598 0.125 8.65039 0.125C4.36133 0.125 0.845703 3.64062 0.845703 7.92969C0.845703 9.33594 1.23242 10.6719 1.90039 11.832L0.810547 15.875L4.92383 14.8203C6.08398 15.418 7.34961 15.7695 8.65039 15.7695C12.9746 15.7695 16.5605 12.2539 16.5605 7.96484C16.5605 5.85547 15.6465 3.92188 14.1699 2.44531ZM8.65039 14.4336C7.49023 14.4336 6.36523 14.1172 5.3457 13.5195L5.13477 13.3789L2.67383 14.0469L3.3418 11.6562L3.16602 11.4102C2.5332 10.3555 2.18164 9.16016 2.18164 7.92969C2.18164 4.37891 5.09961 1.46094 8.68555 1.46094C10.4082 1.46094 12.0254 2.12891 13.2559 3.35938C14.4863 4.58984 15.2246 6.20703 15.2246 7.96484C15.2246 11.5156 12.2363 14.4336 8.65039 14.4336ZM12.2363 9.58203C12.0254 9.47656 11.0762 9.01953 10.9004 8.94922C10.7246 8.87891 10.584 8.84375 10.4434 9.05469C10.3379 9.23047 9.95117 9.6875 9.8457 9.82812C9.70508 9.93359 9.59961 9.96875 9.42383 9.86328C8.26367 9.30078 7.52539 8.84375 6.75195 7.54297C6.54102 7.19141 6.96289 7.22656 7.31445 6.48828C7.38477 6.34766 7.34961 6.24219 7.31445 6.13672C7.2793 6.03125 6.85742 5.08203 6.7168 4.69531C6.54102 4.30859 6.40039 4.34375 6.25977 4.34375C6.1543 4.34375 6.01367 4.34375 5.9082 4.34375C5.76758 4.34375 5.55664 4.37891 5.38086 4.58984C5.20508 4.80078 4.71289 5.25781 4.71289 6.20703C4.71289 7.19141 5.38086 8.10547 5.48633 8.24609C5.5918 8.35156 6.85742 10.3203 8.82617 11.1641C10.0566 11.7266 10.5488 11.7617 11.1816 11.6562C11.5332 11.6211 12.3066 11.1992 12.4824 10.7422C12.6582 10.2852 12.6582 9.89844 12.5879 9.82812C12.5527 9.72266 12.4121 9.6875 12.2363 9.58203Z" fill="white"/>
</svg>
